<svg width="24" height="24" viewBox="0 0 24 24" fill="none" xmlns="http://www.w3.org/2000/svg">
<path d="M6.36658 12.1119L2.91109 7.37156C2.6829 6.97926 2.97632 6.68504 3.36747 6.68504H7.01856C7.2272 6.68504 7.34455 6.79401 7.37715 6.84849L8.74631 8.71192C8.92886 8.92115 8.88757 9.1914 8.84411 9.30037L6.85557 12.1119C6.67301 12.2949 6.45351 12.1881 6.36658 12.1119Z" fill="#2B62D3"></path>
<path d="M11.1912 6.84849L7.08376 12.6676C6.95337 12.9292 7.09463 13.2779 7.18156 13.4195L8.90931 15.7733C9.24834 16.2441 9.52869 16.0131 9.62648 15.8387L15.5269 7.46964C15.9181 6.92042 15.516 6.69593 15.2661 6.65234H11.6476C11.3608 6.65234 11.2238 6.78311 11.1912 6.84849Z" fill="#2B62D3"></path>
<path d="M16.6027 6.84849L9.78948 16.5253C9.67899 16.6822 9.74344 16.9611 9.78948 17.081L11.615 19.6637C11.928 20.0298 12.2235 19.8162 12.3322 19.6637L21.0361 7.46964C21.3752 6.97272 20.9818 6.71773 20.7427 6.65234H17.0917C16.8309 6.65234 16.657 6.78311 16.6027 6.84849Z" fill="#2B62D3"></path>
</svg>
